<?xml version="1.0" standalone="no"?><!DOCTYPE svg PUBLIC "-//W3C//DTD SVG 1.1//EN"
        "http://www.w3.org/Graphics/SVG/1.1/DTD/svg11.dtd">
<svg t="1650526459589" class="icon" viewBox="0 0 1024 1024" version="1.1" xmlns="http://www.w3.org/2000/svg" p-id="3702"
     xmlns:xlink="http://www.w3.org/1999/xlink" width="64" height="64">
    <defs>
        <style type="text/css">@font-face { font-family: feedback-iconfont; src:
            url("//at.alicdn.com/t/font_1031158_u69w8yhxdu.woff2?t=1630033759944") format("woff2"),
            url("//at.alicdn.com/t/font_1031158_u69w8yhxdu.woff?t=1630033759944") format("woff"),
            url("//at.alicdn.com/t/font_1031158_u69w8yhxdu.ttf?t=1630033759944") format("truetype"); }
        </style>
    </defs>
    <path d="M889.125173 280.495392c-12.565177-16.358573-35.414581-18.694781-57.496505-18.694781L298.585399 261.800611l-7.309476-53.609988c-4.152577-31.91999-19.781532-35.882232-54.775534-35.882232l-56.568367 0c-16.635889-0.157589-20.957311 16.744359-20.957311 26.001187 0 9.257851 6.723122 23.453155 22.877033 23.363104l29.730115 0c21.889543 0.258896 30.043247 12.863982 33.267685 28.54308l62.048171 412.463006c4.252861 32.638351 32.210609 53.012378 66.49546 53.012378l424.892083 0c13.730723-0.035816 24.90011-6.147 24.716938-22.718421-0.168846-15.780405-10.509355-24.65247-24.716938-24.685215L384.506281 668.287509c-17.504676 0-28.891004-10.56359-30.969339-26.544563l-5.497201-35.298947 409.949766 0c31.200606 0 57.277518-17.092283 64.87045-45.616944l72.151273-232.704946C900.17688 308.751946 898.019751 292.723901 889.125173 280.495392L889.125173 280.495392 889.125173 280.495392zM837.786924 352.287485l-57.622372 186.915064c-3.695159 13.888312-16.441461 19.830651-32.490995 19.830651L339.989391 559.033199l-34.073026-249.076822L805.281603 309.956378c11.595083 0 28.754904 0.931209 34.918277 8.963139C845.63159 325.987492 840.271512 342.946746 837.786924 352.287485L837.786924 352.287485 837.786924 352.287485zM452.9143 787.149641c0 26.612101-21.575388 48.185442-48.180326 48.185442-26.612101 0-48.185442-21.572318-48.185442-48.185442 0-26.609031 21.572318-48.177256 48.185442-48.177256C431.338912 738.971361 452.9143 760.540609 452.9143 787.149641L452.9143 787.149641 452.9143 787.149641zM758.715031 787.149641c0 26.612101-21.575388 48.185442-48.184419 48.185442s-48.181349-21.572318-48.181349-48.185442c0-26.609031 21.572318-48.177256 48.181349-48.177256C737.139643 738.971361 758.715031 760.540609 758.715031 787.149641L758.715031 787.149641 758.715031 787.149641z"
          p-id="3703"></path>
</svg>